<?xml version="1.0" encoding="utf-8"?>
<!-- Generator: Adobe Illustrator 22.1.0, SVG Export Plug-In . SVG Version: 6.00 Build 0)  -->
<svg version="1.1" id="Layer_1" xmlns="http://www.w3.org/2000/svg" xmlns:xlink="http://www.w3.org/1999/xlink" x="0px" y="0px"
	 viewBox="0 0 826 153.4" style="enable-background:new 0 0 826 153.4;" xml:space="preserve">
<style type="text/css">
	.st0{fill:#FFFFFF;}
</style>
<title>golion-z-sourcefile-algae</title>
<g>
	<path class="st0" d="M516,120.2c8.3,0.2,16.3-2.9,22.3-8.7l11,11.9c-7.3,7.5-17.4,13.1-33.1,13.1c-27,0-44.4-17.9-44.4-42.1
		c0-24,18.3-42.1,41.9-42.1c26.8,0,41.9,20.4,40.6,48.6h-63.2C493.4,112.7,501.6,120.2,516,120.2 M535.3,87.5
		c-1.7-10.9-8.2-19-21.3-19c-12.2,0-20.6,6.9-22.8,19H535.3z"/>
	<polygon class="st0" points="100.8,119.3 149.5,69.8 101.9,69.8 101.9,54.3 172,54.3 172,70.1 123.3,119.6 172.7,119.6 
		172.7,135.1 100.8,135.1 	"/>
	<path class="st0" d="M227.3,120.2c8.3,0.2,16.3-2.9,22.3-8.7l11,11.9c-7.3,7.5-17.4,13.1-33.1,13.1c-26.9,0-44.4-17.9-44.4-42.1
		c0-24,18.3-42.1,41.9-42.1c26.8,0,41.9,20.4,40.6,48.6h-63.2C204.7,112.7,212.9,120.2,227.3,120.2 M246.6,87.5
		c-1.7-10.9-8.2-19-21.3-19c-12.2,0-20.6,6.9-22.8,19H246.6z"/>
	<path class="st0" d="M370.8,94.5c0-25.9,19.3-42,40.6-42c10.7,0,20.9,4.7,26.9,12.1V16.9h17.2v118h-17.2v-11.2
		c-6.2,7.9-16.4,12.8-27.1,12.8C390.6,136.5,370.8,120.2,370.8,94.5 M439.2,94.3c0-14.4-10.9-26.2-25.6-26.2
		c-14.5,0-25.6,11.5-25.6,26.2s11.2,26.3,25.6,26.3C428.4,120.6,439.3,108.8,439.2,94.3"/>
	<path class="st0" d="M565.6,117.7l15.6-8.1c4.2,7.5,12.2,12,20.8,11.8c9.7,0,14.8-5,14.8-10.7c0-6.5-9.4-7.9-19.6-10
		c-13.8-2.9-28.1-7.5-28.1-24.1c0-12.8,12.2-24.6,31.3-24.4c15.1,0,26.3,6,32.6,15.7l-14.4,7.9c-3.7-5.7-10.1-9.2-18.2-9.2
		c-9.2,0-14,4.5-14,9.7c0,5.8,7.5,7.4,19.2,10c13.3,2.9,28.4,7.3,28.4,24.1c0,11.2-9.7,26.2-32.8,26
		C584.2,136.4,572.4,129.7,565.6,117.7"/>
	<polygon class="st0" points="680.6,99 667,113.8 667,134.9 649.8,134.9 649.8,16.9 667,16.9 667,94.1 703.5,54 724.4,54 
		692.8,88.6 725.2,134.9 705.8,134.9 	"/>
	<path class="st0" d="M318.8,52.4c-20.5,0-37.6,13.2-37.6,35.2v47.2h17.5v-45c0-13.2,7.6-21.2,20.6-21.2s19.5,7.9,19.5,21.2v45h17.5
		V87.7C356.4,65.7,339.2,52.4,318.8,52.4"/>
</g>
</svg>
